<svg width="64" height="64" viewBox="0 0 64 64" fill="none" xmlns="http://www.w3.org/2000/svg">
  <defs>
    <linearGradient id="placeholder-gradient" x1="0%" y1="0%" x2="100%" y2="100%">
      <stop offset="0%" style="stop-color:#6B7280;stop-opacity:1" />
      <stop offset="100%" style="stop-color:#9CA3AF;stop-opacity:1" />
    </linearGradient>
  </defs>
  
  <!-- Background circle -->
  <circle cx="32" cy="32" r="30" fill="url(#placeholder-gradient)" stroke="white" stroke-width="2"/>
  
  <!-- Placeholder icon -->
  <g transform="translate(32, 32)">
    <!-- Image icon -->
    <rect x="-12" y="-8" width="24" height="16" fill="white" rx="2"/>
    <rect x="-8" y="-4" width="16" height="8" fill="url(#placeholder-gradient)" rx="1"/>
    
    <!-- Mountain peaks -->
    <path d="M-12,8 L-8,4 L-4,6 L0,2 L4,6 L8,4 L12,8 L12,8 L-12,8 Z" fill="white"/>
    
    <!-- Sun -->
    <circle cx="8" cy="-8" r="3" fill="white"/>
    <line x1="8" y1="-12" x2="8" y2="-4" stroke="white" stroke-width="1"/>
    <line x1="4" y1="-8" x2="12" y2="-8" stroke="white" stroke-width="1"/>
    <line x1="5.5" y1="-11.5" x2="10.5" y2="-4.5" stroke="white" stroke-width="1"/>
    <line x1="10.5" y1="-11.5" x2="5.5" y2="-4.5" stroke="white" stroke-width="1"/>
  </g>
  
  <!-- Text -->
  <text x="32" y="50" font-family="Arial, sans-serif" font-size="8" font-weight="bold" fill="white" text-anchor="middle">LOGO</text>
</svg>