<svg width="64" height="64" viewBox="0 0 64 64" fill="none" xmlns="http://www.w3.org/2000/svg">
  <defs>
    <linearGradient id="docker-gradient" x1="0%" y1="0%" x2="100%" y2="100%">
      <stop offset="0%" style="stop-color:#2496ED;stop-opacity:1" />
      <stop offset="100%" style="stop-color:#0066CC;stop-opacity:1" />
    </linearGradient>
  </defs>
  
  <!-- Background circle -->
  <circle cx="32" cy="32" r="30" fill="url(#docker-gradient)" stroke="white" stroke-width="2"/>
  
  <!-- Docker whale -->
  <g transform="translate(32, 32)">
    <!-- Whale body -->
    <ellipse cx="0" cy="0" rx="18" ry="12" fill="white"/>
    
    <!-- Whale tail -->
    <path d="M-18,0 Q-24,-6 -18,-12 Q-24,-6 -18,0" fill="white"/>
    
    <!-- Containers on whale -->
    <rect x="-8" y="-8" width="4" height="6" fill="url(#docker-gradient)" rx="1"/>
    <rect x="-2" y="-8" width="4" height="6" fill="url(#docker-gradient)" rx="1"/>
    <rect x="4" y="-8" width="4" height="6" fill="url(#docker-gradient)" rx="1"/>
    
    <rect x="-8" y="-1" width="4" height="6" fill="url(#docker-gradient)" rx="1"/>
    <rect x="-2" y="-1" width="4" height="6" fill="url(#docker-gradient)" rx="1"/>
    <rect x="4" y="-1" width="4" height="6" fill="url(#docker-gradient)" rx="1"/>
    
    <!-- Water waves -->
    <path d="M-20,8 Q-15,12 -10,8 Q-5,12 0,8 Q5,12 10,8 Q15,12 20,8" stroke="white" stroke-width="2" fill="none" opacity="0.7"/>
  </g>
</svg>
