<svg width="64" height="64" viewBox="0 0 64 64" fill="none" xmlns="http://www.w3.org/2000/svg">
  <!-- Background Circle -->
  <circle cx="32" cy="32" r="30" fill="#1a1a1a" stroke="#ffffff" stroke-width="2"/>
  
  <!-- Microphone -->
  <rect x="28" y="20" width="8" height="16" rx="4" fill="#ffffff"/>
  <rect x="30" y="36" width="4" height="4" rx="2" fill="#ffffff"/>
  <line x1="32" y1="40" x2="32" y2="44" stroke="#ffffff" stroke-width="2"/>
  
  <!-- Sound Waves -->
  <path d="M16 32 Q20 28 24 32 Q28 36 32 32 Q36 28 40 32 Q44 36 48 32" stroke="#3498db" stroke-width="2" fill="none" opacity="0.7"/>
  <path d="M18 32 Q22 26 26 32 Q30 38 34 32 Q38 26 42 32 Q46 38 50 32" stroke="#3498db" stroke-width="1.5" fill="none" opacity="0.5"/>
  <path d="M20 32 Q24 24 28 32 Q32 40 36 32 Q40 24 44 32 Q48 40 52 32" stroke="#3498db" stroke-width="1" fill="none" opacity="0.3"/>
  
  <!-- Neural Network Nodes -->
  <circle cx="20" cy="20" r="2" fill="#e74c3c"/>
  <circle cx="44" cy="20" r="2" fill="#e74c3c"/>
  <circle cx="20" cy="44" r="2" fill="#e74c3c"/>
  <circle cx="44" cy="44" r="2" fill="#e74c3c"/>
  <circle cx="32" cy="32" r="3" fill="#f39c12"/>
  
  <!-- Connection Lines -->
  <line x1="20" y1="20" x2="32" y2="32" stroke="#ffffff" stroke-width="1" opacity="0.4"/>
  <line x1="44" y1="20" x2="32" y2="32" stroke="#ffffff" stroke-width="1" opacity="0.4"/>
  <line x1="20" y1="44" x2="32" y2="32" stroke="#ffffff" stroke-width="1" opacity="0.4"/>
  <line x1="44" y1="44" x2="32" y2="32" stroke="#ffffff" stroke-width="1" opacity="0.4"/>
</svg>
